PathFileType	4	(X/Y/Z)	C:\Motion Data\9999\Fregly Locomotion Course\Processed\9999bj_kick4.trc
DataRate	CameraRate	NumFrames	NumMarkers	Units	OrigDataRate	OrigDataStartFrame	OrigNumFrames
200.00	200.00	       4	35	mm	200.00	147	       292
Frame#	Time	R_Heel			R_Midfoot_Superior			R_Midfoot_Lateral			R_Toe			L_Heel			L_Midfoot_Superior			L_Midfoot_Lateral			L_Toe			R_Shank_Superior			R_Shank_Inferior			R_Shank_Lateral			R_Shank Posterior			L_Shank_Superior			L_Shank_Inferior			L_Shank_Lateral			L_Shank_Posterior			R_Patella			L_Patella			R_Thigh_Superior			R_Thigh_Inferior			R_Thigh_Lateral			L_Thigh_Superior			L_Thigh_Inferior			L_Thigh_Lateral			R_Asis			L_Asis			Sacral			R_Shoulder			L_Shoulder			Back			R_Elbow			L_Elbow			R_Wrist			L_Wrist			Ball			
		X1	Y1	Z1	X2	Y2	Z2	X3	Y3	Z3	X4	Y4	Z4	X5	Y5	Z5	X6	Y6	Z6	X7	Y7	Z7	X8	Y8	Z8	X9	Y9	Z9	X10	Y10	Z10	X11	Y11	Z11	X12	Y12	Z12	X13	Y13	Z13	X14	Y14	Z14	X15	Y15	Z15	X16	Y16	Z16	X17	Y17	Z17	X18	Y18	Z18	X19	Y19	Z19	X20	Y20	Z20	X21	Y21	Z21	X22	Y22	Z22	X23	Y23	Z23	X24	Y24	Z24	X25	Y25	Z25	X26	Y26	Z26	X27	Y27	Z27	X28	Y28	Z28	X29	Y29	Z29	X30	Y30	Z30	X31	Y31	Z31	X32	Y32	Z32	X33	Y33	Z33	X34	Y34	Z34	X35	Y35	Z35

147	   0.730	  766.50536999999997	  386.73122999999998	  426.82843000000003	  910.46686000000000	  477.29257000000001	  468.12761999999998	  875.49523999999997	  420.53917999999999	  523.24719000000005	 1019.17980999999997	  453.94567999999998	  504.12063999999998	  358.11507999999998	   78.43008000000000	  156.44401999999999	  545.59027000000003	   95.05936000000000	  155.42514000000000	  483.18954000000002	   29.69514000000000	  110.96616000000000	  635.03972999999996	   48.20974000000000	  175.15478999999999	  628.53778000000000	  682.73528999999996	  352.57781999999997	  738.69268999999997	  580.53588999999999	  410.79874000000001	  628.61974999999995	  599.65990999999997	  429.36743000000001	  560.76031000000000	  559.15015000000005	  340.04538000000002	  468.99813999999998	  405.72516000000002	   52.67649000000000	  479.37792999999999	  252.94456000000000	   92.27144000000000	  415.92200000000003	  319.86398000000003	    1.36086000000000	  380.73718000000002	  207.86995999999999	   83.85818999999999	  565.77759000000003	  772.09198000000004	  310.42941000000002	  479.76468000000000	  511.60818000000000	   20.33271000000000	  399.16320999999999	  891.46265000000005	  258.30252000000002	  466.51607999999999	  838.62157999999999	  273.38745000000000	  361.23712000000000	  808.32703000000004	  309.05419999999998	  440.01864999999998	  758.19506999999999	  -58.66396000000000	  463.56693000000001	  647.45678999999996	  -14.79497000000000	  372.29419000000001	  653.85419000000002	  -83.31196000000000	  249.73244000000000	  984.45105000000001	  177.30516000000000	  344.57751000000002	  960.68407999999999	  -72.44513999999999	  130.80077000000000	  996.88518999999997	  -10.64476000000000	  250.89725000000001	 1302.94066999999995	  312.71494000000001	  487.10665999999998	 1394.34473000000003	   58.26963000000000	  348.45578000000000	 1412.46008000000006	  141.01897000000000	   48.39833000000000	 1086.10950000000003	  220.88638000000000	  584.21758999999997	 1116.70373999999993	  -70.40340999999999	  -15.35568000000000	  827.97131000000002	  238.79983999999999	  744.31615999999997	  967.79796999999996	   83.64066000000000	 1625.51917000000003	  496.98946999999998	  543.48748999999998
148	   0.735	  789.04003999999998	  406.09482000000003	  419.75308000000001	  929.28612999999996	  501.54955999999999	  463.80139000000003	  895.62756000000002	  443.32900999999998	  517.79967999999997	 1038.30518000000006	  481.36237000000000	  500.43954000000002	  358.42489999999998	   77.90752000000001	  158.10228000000001	  545.74365000000000	   94.85439000000000	  156.22914000000000	  483.25310999999999	   30.11134000000000	  111.04297000000000	  635.00933999999995	   47.91430000000000	  175.49690000000001	  638.56890999999996	  697.36981000000003	  352.49002000000002	  754.22559000000001	  598.67303000000004	  407.26468000000000	  642.62139999999999	  610.85852000000000	  426.57808999999997	  578.76635999999996	  569.15985000000001	  335.71355999999997	  471.14456000000001	  405.72922000000000	   53.98778000000000	  480.31182999999999	  252.86371000000000	   93.77997000000001	  417.39420000000001	  320.07729999999998	    2.40227000000000	  381.87463000000002	  208.47621000000001	   85.01349000000000	  574.26849000000004	  784.79967999999997	  305.13080000000002	  484.50182999999998	  512.83667000000003	   23.62061000000000	  405.19125000000003	  896.67096000000004	  253.93124000000000	  472.49747000000002	  847.32806000000005	  269.49979000000002	  369.48352000000000	  814.07750999999996	  310.76015999999998	  442.79656999999997	  757.85888999999997	  -57.57306000000000	  465.73257000000001	  647.76262999999994	  -12.98499000000000	  374.71539000000001	  653.62518000000000	  -81.93076000000001	  252.37994000000000	  984.55078000000003	  177.75531000000001	  347.25945999999999	  959.71265000000005	  -71.51168000000000	  132.80838000000000	  996.40222000000006	  -10.02725000000000	  254.09924000000001	 1302.92528999999990	  312.75369000000001	  490.63857999999999	 1393.77185000000009	   59.88724000000000	  352.20123000000001	 1411.22278000000006	  142.24359000000001	   50.64892000000000	 1087.35229000000004	  218.82530000000000	  591.72515999999996	 1115.49047999999993	  -59.81844000000000	  -17.39336000000000	  829.98302999999999	  230.70714000000001	  748.32947000000001	  974.53827000000001	  106.67064999999999	 1713.45641999999998	  517.27752999999996	  550.45068000000003
149	   0.740	  810.51056000000005	  423.47885000000002	  412.57369999999997	  942.36095999999998	  520.74920999999995	  458.32870000000003	  914.92352000000005	  463.09899999999999	  513.16314999999997	 1055.71776999999997	  507.27307000000002	  497.59417999999999	  358.28859999999997	   77.52267999999999	  159.42850999999999	  545.45758000000001	   94.66454000000000	  157.38156000000001	  483.05212000000000	   30.82696000000000	  110.35001000000000	  634.81366000000003	   47.75906000000000	  176.02701999999999	  648.50598000000002	  711.20849999999996	  351.62094000000002	  768.07190000000003	  615.50591999999995	  403.61975000000001	  656.14056000000005	  621.44219999999996	  423.05617999999998	  595.73468000000003	  580.53210000000001	  330.44632000000001	  472.98502000000002	  405.42538000000002	   55.82018000000000	  480.66098000000000	  253.05489000000000	   96.83749000000000	  418.13135000000000	  319.38202000000001	    4.36035000000000	  382.83733999999998	  208.35035999999999	   87.03044000000000	  583.16088999999999	  796.94390999999996	  300.07422000000003	  487.03079000000002	  513.27161000000001	   26.13680000000000	  410.65973000000002	  901.43164000000002	  249.27785000000000	  480.09647000000001	  856.01378999999997	  265.66726999999997	  378.53573999999998	  820.57959000000005	  310.75232000000000	  445.17617999999999	  757.21649000000002	  -56.29214000000000	  467.98809999999997	  647.93982000000005	  -11.28858000000000	  378.05945000000003	  653.19641000000001	  -80.59589000000000	  254.38341000000000	  984.66088999999999	  178.17975000000001	  350.79590000000002	  958.96112000000005	  -70.65267000000000	  135.21718999999999	  995.12579000000005	   -9.79007000000000	  257.01299999999998	 1302.81908999999996	  313.11734000000001	  491.84595000000002	 1393.93310999999994	   60.48688000000000	  354.04126000000002	 1410.92931999999996	  142.79949999999999	   52.70142000000000	 1088.57763999999997	  215.48206999999999	  597.94312000000002	 1114.64551000000006	  -49.72747000000000	  -19.13355000000000	  832.36797999999999	  225.28375000000000	  751.38018999999997	  982.90899999999999	  126.80741000000000	 1778.08837999999992	  533.04340000000002	  560.99901999999997
150	   0.745	  830.03088000000002	  439.80068999999997	  405.63983000000002	  960.73773000000006	  544.44286999999997	  454.62848000000002	  932.70703000000003	  480.58785999999998	  505.42406999999997	 1071.14648000000011	  531.18750000000000	  493.26504999999997	  358.10538000000003	   77.03515000000000	  160.63315000000000	  545.36823000000004	   94.25792000000000	  158.67671000000001	  482.90195000000000	   31.39159000000000	  110.75791000000000	  634.56188999999995	   47.60533000000000	  176.60482999999999	  658.60797000000002	  724.84655999999995	  350.38898000000000	  781.28093999999999	  631.72131000000002	  400.63770000000000	  669.02277000000004	  631.92822000000001	  418.72442999999998	  610.82213999999999	  592.73730000000000	  324.98410000000001	  474.52112000000000	  405.18069000000003	   57.44738000000000	  481.82477000000000	  252.60405000000000	   98.43823999999999	  419.79932000000002	  319.85030999999998	    7.13191000000000	  382.85622999999998	  208.60419999999999	   88.73387000000000	  592.16931000000000	  808.74419999999998	  295.48498999999998	  488.08294999999998	  512.53039999999999	   27.61551000000000	  416.66964999999999	  907.79114000000004	  245.96802000000000	  488.00876000000000	  864.30926999999997	  262.61239999999998	  388.04010000000000	  828.21367999999995	  310.87169999999998	  447.79165999999998	  757.08898999999997	  -53.87556000000000	  470.23214999999999	  647.27264000000002	   -7.97042000000000	  381.22559000000001	  652.68102999999996	  -78.68570000000000	  257.30054000000001	  984.82403999999997	  178.58366000000001	  354.02535999999998	  958.60455000000002	  -71.36123000000001	  137.23911000000001	  994.55475000000001	   -9.68631000000000	  259.62810999999999	 1302.76367000000005	  313.43973000000000	  494.06598000000002	 1394.07079999999996	   61.19519000000000	  357.52535999999998	 1410.52161000000001	  143.30042000000000	   55.70468000000000	 1089.79650999999990	  213.26723999999999	  603.70996000000002	 1113.60852000000000	  -40.36017000000000	  -20.33906000000000	  834.29803000000004	  219.51366999999999	  752.67010000000005	  992.02570000000003	  147.34426999999999	 1884.60254000000009	  555.31122000000005	  559.85834000000000
